<mxfile host="app.diagrams.net" modified="2022-02-27T11:47:25.930Z" agent="5.0 (Windows)" etag="OEiWLX7q-dB-z7BHlyAS" version="16.6.4" type="github" pages="2">
  <diagram id="YfEi1q6KJIcqF8NLo4rr" name="Sub Domains">
    <mxGraphModel dx="1038" dy="528" grid="1" gridSize="10" guides="1" tooltips="1" connect="1" arrows="1" fold="1" page="1" pageScale="1" pageWidth="850" pageHeight="1100" math="0" shadow="0">
      <root>
        <mxCell id="0" />
        <mxCell id="1" parent="0" />
        <mxCell id="HkzcIIWTQ-9LM3XU63sH-1" value="&lt;div&gt;Product &lt;br&gt;&lt;/div&gt;&lt;div&gt;Management&lt;/div&gt;" style="rounded=1;whiteSpace=wrap;html=1;" parent="1" vertex="1">
          <mxGeometry x="314" y="142" width="120" height="45" as="geometry" />
        </mxCell>
        <mxCell id="HkzcIIWTQ-9LM3XU63sH-2" value="Inventory Management" style="rounded=1;whiteSpace=wrap;html=1;" parent="1" vertex="1">
          <mxGeometry x="183" y="291" width="250" height="40" as="geometry" />
        </mxCell>
        <mxCell id="HkzcIIWTQ-9LM3XU63sH-3" value="&lt;div&gt;Vendor &lt;br&gt;&lt;/div&gt;&lt;div&gt;Management&lt;/div&gt;" style="rounded=1;whiteSpace=wrap;html=1;" parent="1" vertex="1">
          <mxGeometry x="315" y="41" width="120" height="40" as="geometry" />
        </mxCell>
        <mxCell id="VJKcZNPn-DbcgR68oLbY-1" value="Purchases Management" style="rounded=1;whiteSpace=wrap;html=1;" parent="1" vertex="1">
          <mxGeometry x="181" y="238" width="120" height="40" as="geometry" />
        </mxCell>
        <mxCell id="VJKcZNPn-DbcgR68oLbY-2" value="Customer Management" style="rounded=1;whiteSpace=wrap;html=1;" parent="1" vertex="1">
          <mxGeometry x="315" y="91" width="120" height="40" as="geometry" />
        </mxCell>
        <mxCell id="VJKcZNPn-DbcgR68oLbY-3" value="&lt;div&gt;Sales&lt;/div&gt;&lt;div&gt;&amp;nbsp;Management&lt;/div&gt;" style="rounded=1;whiteSpace=wrap;html=1;" parent="1" vertex="1">
          <mxGeometry x="314" y="238" width="120" height="40" as="geometry" />
        </mxCell>
        <mxCell id="VJKcZNPn-DbcgR68oLbY-8" value="&lt;div&gt;Tax&lt;/div&gt;&lt;div&gt;&amp;nbsp;Treatment&lt;/div&gt;" style="rounded=1;whiteSpace=wrap;html=1;" parent="1" vertex="1">
          <mxGeometry x="181" y="40" width="120" height="150" as="geometry" />
        </mxCell>
        <mxCell id="VJKcZNPn-DbcgR68oLbY-11" value="" style="rounded=1;whiteSpace=wrap;html=1;fillColor=none;" parent="1" vertex="1">
          <mxGeometry x="162" y="20" width="288" height="180" as="geometry" />
        </mxCell>
        <mxCell id="VJKcZNPn-DbcgR68oLbY-12" value="Admin" style="text;html=1;strokeColor=none;fillColor=none;align=center;verticalAlign=middle;whiteSpace=wrap;rounded=0;" parent="1" vertex="1">
          <mxGeometry x="95" y="101" width="60" height="30" as="geometry" />
        </mxCell>
        <mxCell id="VJKcZNPn-DbcgR68oLbY-13" value="" style="rounded=1;whiteSpace=wrap;html=1;fillColor=none;" parent="1" vertex="1">
          <mxGeometry x="158" y="218" width="292" height="130" as="geometry" />
        </mxCell>
        <mxCell id="VJKcZNPn-DbcgR68oLbY-14" value="&lt;div&gt;Purchases &lt;br&gt;&lt;/div&gt;&lt;div&gt;Sales Management&lt;br&gt;&lt;/div&gt;" style="text;html=1;strokeColor=none;fillColor=none;align=center;verticalAlign=middle;whiteSpace=wrap;rounded=0;" parent="1" vertex="1">
          <mxGeometry x="87" y="268" width="60" height="30" as="geometry" />
        </mxCell>
      </root>
    </mxGraphModel>
  </diagram>
  <diagram id="jfk80qz_vTWu0UIgSuGQ" name="Page-2">
    <mxGraphModel dx="1038" dy="528" grid="1" gridSize="10" guides="1" tooltips="1" connect="1" arrows="1" fold="1" page="1" pageScale="1" pageWidth="850" pageHeight="1100" math="0" shadow="0">
      <root>
        <mxCell id="6BsjG6h1hp4U5B_2rJbT-0" />
        <mxCell id="6BsjG6h1hp4U5B_2rJbT-1" parent="6BsjG6h1hp4U5B_2rJbT-0" />
      </root>
    </mxGraphModel>
  </diagram>
</mxfile>
